<svg version="1.1" id="Layer_1" xmlns="http://www.w3.org/2000/svg" xmlns:xlink="http://www.w3.org/1999/xlink" x="0px" y="0px"
	 width="100%" viewBox="0 0 1024 1024" enable-background="new 0 0 1024 1024" xml:space="preserve">
<path fill="#000000" opacity="1.000000" stroke="none" 
	d="
M515.606384,768.188416 
	C509.313904,768.568787 504.001587,766.756348 499.033844,763.870178 
	C434.081940,726.134094 369.164612,688.338440 304.183136,650.653381 
	C293.555420,644.490051 288.494904,635.893860 288.537842,623.321289 
	C288.790070,549.495117 288.798615,475.667114 288.505493,401.841217 
	C288.466248,391.957336 292.198608,385.190491 300.224243,380.364105 
	C311.782410,373.413300 323.420013,366.592407 335.087067,359.825287 
	C388.831207,328.652710 442.715179,297.718384 496.266937,266.219147 
	C508.604706,258.962006 519.262695,259.030975 531.584167,266.320984 
	C586.626221,298.886871 642.006042,330.881927 697.259705,363.090363 
	C706.755737,368.625702 716.214417,374.225311 725.722046,379.740509 
	C733.834900,384.446594 737.407227,391.435547 737.396179,400.799805 
	C737.307922,475.293335 737.262146,549.787231 737.433899,624.280518 
	C737.461426,636.214905 732.545959,644.624023 722.404236,650.436951 
	C701.744629,662.278442 681.121460,674.183411 660.490479,686.074768 
	C622.252930,708.114319 584.133911,730.354553 546.178894,752.879883 
	C536.516602,758.614258 527.470703,765.805603 515.606384,768.188416 
z
M388.452332,608.986572 
	C405.582458,619.267761 422.675659,629.611084 439.851868,639.814636 
	C461.752991,652.825012 483.788757,665.610229 505.611145,678.750488 
	C510.838623,681.898071 515.316711,682.044739 520.382812,678.722046 
	C525.528442,675.347107 530.988220,672.453064 536.290344,669.314514 
	C576.265808,645.651550 616.311096,622.105896 655.843933,597.702576 
	C659.914856,595.189636 661.777710,592.221558 661.759338,587.187195 
	C661.579712,538.034729 661.574280,488.881195 661.760193,439.728851 
	C661.779968,434.498444 659.829895,431.281403 655.624451,428.744080 
	C646.499390,423.238434 637.486328,417.547333 628.366455,412.033051 
	C592.743225,390.493835 557.061218,369.056244 520.891846,348.435059 
	C515.606934,345.422028 511.288635,345.364319 506.166016,348.487030 
	C490.673279,357.931335 474.999207,367.078156 459.400269,376.348389 
	C430.202118,393.700409 401.041290,411.115723 371.779297,428.359406 
	C366.511475,431.463623 364.181396,435.299896 364.212463,441.669373 
	C364.447601,489.821564 364.402008,537.975586 364.256958,586.128479 
	C364.241028,591.427490 366.139252,594.992859 370.521210,597.665039 
	C376.349854,601.219360 382.074646,604.944092 388.452332,608.986572 
z"/>
<path fill="#000000" opacity="1.000000" stroke="none" 
	d="
M410.647522,484.999939 
	C410.648682,478.004425 410.748779,471.506958 410.620178,465.014008 
	C410.517578,459.833862 412.553314,456.235901 417.168884,453.674622 
	C446.716858,437.277649 476.362000,421.046143 505.323517,403.619934 
	C511.090729,400.149841 516.278198,400.280151 522.090027,403.713928 
	C550.464478,420.478271 578.935730,437.079987 607.465027,453.579803 
	C613.592896,457.123810 616.392273,461.991730 616.367920,469.032532 
	C616.261108,499.844238 616.251343,530.656799 616.385742,561.468323 
	C616.413818,567.907715 613.594971,571.910034 608.147095,575.056763 
	C580.761902,590.874329 553.362915,606.677673 526.271729,622.989136 
	C517.455444,628.297363 510.058990,628.803833 500.945099,623.290955 
	C474.030884,607.010925 446.686096,591.437683 419.383453,575.808594 
	C413.190979,572.263794 410.498505,567.590454 410.562653,560.446899 
	C410.786987,535.466309 410.648438,510.482513 410.647522,484.999939 
z"/>
</svg> 